<!-- icon666.com - MILLIONS OF FREE VECTOR ICONS --><svg id="svg8" viewBox="0 0 8.4666665 8.4666669" xmlns="http://www.w3.org/2000/svg" xmlns:svg="http://www.w3.org/2000/svg"><g id="layer1"><path id="path2991" d="m7.0058594 2c-2.7527017 0-5.0058594 2.2531577-5.0058594 5.0058594v17.9960936c0 2.752702 2.2531577 4.998047 5.0058594 4.998047h17.9960936c2.752702 0 4.998047-2.245345 4.998047-4.998047v-17.9960936c0-2.7527055-2.245345-5.0058556-4.998047-5.0058594zm0 2h17.9960936c1.679293 0 2.998047 1.3265624 2.998047 3.0058594v17.9960936c0 1.679293-1.318754 2.998047-2.998047 2.998047h-17.9960936c-1.679297 0-3.0058556-1.31875-3.0058594-2.998047v-17.9960936c0-1.679297 1.3265624-3.0058594 3.0058594-3.0058594zm8.3261716 4.5996094-8.0019529 7.2343746c-.4066545.37149-.4363199 1.002081-.066406 1.410157.3693732.408835 1.0000964.442253 1.4101562.07422l7.3300777-6.628906 7.330078 6.628906c.41006.368013 1.040772.334609 1.410157-.07422.385708-.44267.308912-1.062916-.07422-1.410157l-7.99414-7.2343746c-.449623-.4496229-.922597-.4211527-1.34375 0zm0 6.0898436-8.0019529 7.234375c-.4066545.37149-.4363199 1.002082-.066406 1.410156.3693732.408839 1.0000964.442259 1.4101562.07422l7.3300777-6.628906 7.330078 6.628906c.41006.368013 1.040772.334609 1.410157-.07422.330784-.396593.335142-1.040813-.07422-1.410156l-7.994141-7.234375c-.408561-.408561-.934113-.409636-1.343749 0z" transform="scale(.265)" font-variant-ligatures="normal" font-variant-position="normal" font-variant-caps="normal" font-variant-numeric="normal" font-variant-alternates="normal" font-variant-east-asian="normal" font-feature-settings="normal" font-variation-settings="normal" text-indent="0" text-align="start" text-decoration-line="none" text-decoration-style="solid" text-decoration-color="rgb(0,0,0)" text-transform="none" text-orientation="mixed" white-space="normal" shape-padding="0" shape-margin="0" inline-size="0" isolation="auto" mix-blend-mode="normal" solid-color="rgb(0,0,0)" solid-opacity="1" vector-effect="none" paint-order="stroke fill markers" fill="#000000" style="fill: rgb(89, 141, 102);"></path></g></svg>